<svg width="133" height="224" viewBox="0 0 133 224" fill="none" xmlns="http://www.w3.org/2000/svg">
<path d="M50.7641 186.274H86.6692C86.6692 186.274 98.5564 169.693 98.5564 147.96C98.5564 119.996 132.951 109.645 132.951 70.5948C133 30.0727 101.528 0.0490583 66.5487 0H66.5H66.4513C31.4718 0.0490583 0 30.0727 0 70.5948C0 109.645 34.3949 119.996 34.3949 147.96C34.3949 169.693 50.7641 186.274 50.7641 186.274Z" fill="#333333"/>
<path d="M2.72826 171.213C0.584672 156.496 28.3052 146.733 31.7154 142.956C36.2462 138.001 43.8949 137.707 48.7667 142.22C53.6872 146.782 55.4898 152.915 51.0077 157.82C49.4001 159.685 4.92057 185.931 2.72826 171.213Z" fill="#333333"/>
<path d="M81.3103 157.771C77.5103 152.228 80.3359 145.948 85.7924 142.122C91.2975 138.295 98.8001 139.669 102.6 145.212C106.497 150.854 129.298 163.119 127.446 177.247C125.741 189.905 82.6744 159.832 81.3103 157.771Z" fill="#333333"/>
<path d="M53.4923 224C40.5333 224 36.0026 163.168 36.0026 163.168C35.2718 156.496 40.0462 150.462 46.6718 149.726C53.2974 148.99 59.2897 153.798 60.0205 160.47C60.0205 160.47 66.4513 224 53.4923 224Z" fill="#333333"/>
<path d="M78.6308 223.46C63.5282 223.46 72.9795 158.998 72.9795 158.998C73.6615 152.326 79.6051 147.42 86.2308 148.107C92.8564 148.794 97.7282 154.779 97.0462 161.451C96.9974 161.5 92.5154 223.46 78.6308 223.46Z" fill="#333333"/>
<path d="M52.8589 100.03C56.805 102.63 61.482 105.819 66.4999 105.819C71.5179 105.819 76.2435 102.63 80.1409 100.03H52.8589Z" fill="#F2F2F2"/>
<path d="M98.2641 85.8519C102.085 85.8519 105.182 82.733 105.182 78.8857C105.182 75.0383 102.085 71.9194 98.2641 71.9194C94.4435 71.9194 91.3462 75.0383 91.3462 78.8857C91.3462 82.733 94.4435 85.8519 98.2641 85.8519Z" fill="#F2F2F2"/>
<path d="M105.085 69.5646C102.697 69.3193 100.651 69.074 98.7026 69.3193C97.7282 69.4174 96.8026 69.6627 95.8282 70.0061C94.8539 70.3495 93.8795 70.8401 92.8077 71.3798C93.4898 69.025 95.877 67.1607 98.459 66.9154C99.7257 66.7683 101.041 66.9645 102.162 67.406C103.282 67.8966 104.354 68.5344 105.085 69.5646Z" fill="#F2F2F2"/>
<path d="M34.7359 85.8519C38.5566 85.8519 41.6539 82.733 41.6539 78.8857C41.6539 75.0383 38.5566 71.9194 34.7359 71.9194C30.9153 71.9194 27.818 75.0383 27.818 78.8857C27.818 82.733 30.9153 85.8519 34.7359 85.8519Z" fill="#F2F2F2"/>
<path d="M27.9154 69.5646C28.6462 68.5344 29.718 67.8476 30.8385 67.406C32.0077 66.9645 33.2744 66.7683 34.5411 66.9154C37.1231 67.1607 39.5103 68.9759 40.1923 71.3798C39.0718 70.8401 38.0975 70.3495 37.1718 70.0061C36.1975 69.6627 35.2718 69.4665 34.2975 69.3193C32.3487 69.074 30.3026 69.3193 27.9154 69.5646Z" fill="#F2F2F2"/>
</svg>
