<svg class="female" width="61" height="87" viewBox="0 0 61 87" fill="none" xmlns="http://www.w3.org/2000/svg">
<path d="M60.8471 30.4604C60.8478 24.639 59.1753 18.94 56.0289 14.0422C52.8824 9.14437 48.3946 5.25407 43.0998 2.83458C37.805 0.41508 31.9264 -0.431653 26.164 0.395209C20.4016 1.22207 14.9983 3.68769 10.5975 7.49843C6.1967 11.3092 2.98388 16.3045 1.34164 21.8894C-0.300597 27.4744 -0.303054 33.4137 1.33457 39C2.97218 44.5863 6.18087 49.5843 10.5785 53.3987C14.9762 57.213 20.3774 59.6831 26.1391 60.5148V65.1683H17.4621V73.8453H26.1391V86.8608H34.8161V73.8453H43.4931V65.1683H34.8161V60.5148C42.0398 59.4632 48.6442 55.8485 53.4233 50.3307C58.2025 44.8129 60.8375 37.7601 60.8471 30.4604ZM8.78515 30.4604C8.78515 26.17 10.0574 21.976 12.441 18.4087C14.8246 14.8414 18.2125 12.061 22.1763 10.4191C26.1401 8.77727 30.5017 8.34769 34.7096 9.1847C38.9175 10.0217 42.7828 12.0877 45.8165 15.1215C48.8503 18.1552 50.9163 22.0204 51.7533 26.2284C52.5903 30.4363 52.1607 34.7979 50.5189 38.7617C48.877 42.7255 46.0966 46.1134 42.5293 48.497C38.962 50.8806 34.768 52.1528 30.4776 52.1528C24.7264 52.1464 19.2126 49.8589 15.1459 45.7921C11.0791 41.7254 8.79161 36.2116 8.78515 30.4604Z" fill="#333333"/>
</svg>
