<svg width="79" height="79" viewBox="0 0 79 79" fill="none" xmlns="http://www.w3.org/2000/svg">
<path d="M69.5453 24.1985L78.0536 22.4967L74.9858 7.15793C74.8178 6.31799 74.405 5.54656 73.7993 4.94087C73.1936 4.33519 72.4222 3.92234 71.5822 3.75438L56.2435 0.686523L54.5417 9.19486L61.9312 10.6732L49.0345 23.5699C42.8854 18.9721 35.223 16.874 27.5893 17.6979C19.9557 18.5218 12.9174 22.2065 7.89099 28.0105C2.86457 33.8146 0.223113 41.307 0.498217 48.9801C0.773321 56.6532 3.94457 63.9373 9.37373 69.3664C14.8029 74.7956 22.087 77.9668 29.76 78.2419C37.4331 78.517 44.9256 75.8756 50.7296 70.8492C56.5337 65.8228 60.2184 58.7845 61.0423 51.1508C61.8662 43.5171 59.7681 35.8547 55.1702 29.7056L68.067 16.8089L69.5453 24.1985ZM46.189 63.2287C42.6402 66.7774 37.9708 68.9858 32.9763 69.4777C27.9818 69.9695 22.9712 68.7144 18.7984 65.9261C14.6255 63.1379 11.5486 58.989 10.0918 54.1864C8.63499 49.3838 8.8885 44.2247 10.8091 39.588C12.7297 34.9514 16.1986 31.1242 20.6247 28.7584C25.0508 26.3927 30.1603 25.6348 35.0825 26.614C40.0047 27.5932 44.4352 30.2487 47.6189 34.1283C50.8027 38.0078 52.5428 42.8712 52.5427 47.8899C52.5506 50.7398 51.9931 53.5629 50.9025 56.1958C49.8119 58.8287 48.2098 61.2191 46.189 63.2287Z" fill="#333333"/>
</svg>
