<svg width="21" height="21" viewBox="0 0 21 21" fill="none" xmlns="http://www.w3.org/2000/svg">
    <path fill-rule="evenodd" clip-rule="evenodd" d="M3.18359 0.449829C1.80859 0.449829 0.683594 1.57483 0.683594 2.94983C0.683594 4.32483 1.80859 5.44983 3.18359 5.44983C4.55859 5.44983 5.68359 4.32483 5.68359 2.94983C5.68359 1.57483 4.55859 0.449829 3.18359 0.449829ZM3.18359 7.94983C1.80859 7.94983 0.683594 9.07483 0.683594 10.4498C0.683594 11.8248 1.80859 12.9498 3.18359 12.9498C4.55859 12.9498 5.68359 11.8248 5.68359 10.4498C5.68359 9.07483 4.55859 7.94983 3.18359 7.94983ZM0.683594 17.9498C0.683594 16.5748 1.80859 15.4498 3.18359 15.4498C4.55859 15.4498 5.68359 16.5748 5.68359 17.9498C5.68359 19.3248 4.55859 20.4498 3.18359 20.4498C1.80859 20.4498 0.683594 19.3248 0.683594 17.9498ZM18.1836 5.44983C19.5586 5.44983 20.6836 4.32483 20.6836 2.94983C20.6836 1.57483 19.5586 0.449829 18.1836 0.449829C16.8086 0.449829 15.6836 1.57483 15.6836 2.94983C15.6836 4.32483 16.8086 5.44983 18.1836 5.44983ZM8.1836 17.9498C8.1836 16.5748 9.3086 15.4498 10.6836 15.4498C12.0586 15.4498 13.1836 16.5748 13.1836 17.9498C13.1836 19.3248 12.0586 20.4498 10.6836 20.4498C9.3086 20.4498 8.1836 19.3248 8.1836 17.9498ZM18.1836 15.4498C16.8086 15.4498 15.6836 16.5748 15.6836 17.9498C15.6836 19.3248 16.8086 20.4498 18.1836 20.4498C19.5586 20.4498 20.6836 19.3248 20.6836 17.9498C20.6836 16.5748 19.5586 15.4498 18.1836 15.4498ZM15.6836 10.4498C15.6836 9.07483 16.8086 7.94983 18.1836 7.94983C19.5586 7.94983 20.6836 9.07483 20.6836 10.4498C20.6836 11.8248 19.5586 12.9498 18.1836 12.9498C16.8086 12.9498 15.6836 11.8248 15.6836 10.4498ZM10.6836 7.94983C9.3086 7.94983 8.1836 9.07483 8.1836 10.4498C8.1836 11.8248 9.3086 12.9498 10.6836 12.9498C12.0586 12.9498 13.1836 11.8248 13.1836 10.4498C13.1836 9.07483 12.0586 7.94983 10.6836 7.94983ZM8.1836 2.94983C8.1836 1.57483 9.3086 0.449829 10.6836 0.449829C12.0586 0.449829 13.1836 1.57483 13.1836 2.94983C13.1836 4.32483 12.0586 5.44983 10.6836 5.44983C9.3086 5.44983 8.1836 4.32483 8.1836 2.94983Z" fill="#333333"/>
</svg>
