<svg width="405" height="338" viewBox="0 0 405 338" fill="none" xmlns="http://www.w3.org/2000/svg">
<path d="M175.43 25.1299V325.518L178.042 327.103C184.39 330.923 190.332 334.364 195.732 337.412V47.6177C189.843 39.3717 183.032 31.8268 175.43 25.1299Z" fill="#FF614C" fill-opacity="0.1" style="mix-blend-mode:darken"/>
<path d="M105.047 0.407227V276.763C111.814 282.182 118.582 287.344 125.35 292.261V2.2496C118.65 1.03369 111.856 0.417135 105.047 0.407227Z" fill="#FF614C" fill-opacity="0.1" style="mix-blend-mode:darken"/>
<path d="M69.8554 6.61168V245.822C76.4335 252.244 83.2282 258.448 90.1582 264.422V1.46387C83.2283 2.45934 76.423 4.18486 69.8554 6.61168Z" fill="#FF614C" fill-opacity="0.1" style="mix-blend-mode:darken"/>
<path d="M149.835 9.22596C146.613 7.97062 143.415 6.85526 140.238 5.87988V302.814C147.182 307.596 153.99 312.08 160.541 316.266V14.4009C157.111 12.4023 153.531 10.6722 149.835 9.22596Z" fill="#FF614C" fill-opacity="0.1" style="mix-blend-mode:darken"/>
<path d="M0.826146 118.238C1.51644 140.441 8.56825 161.926 19.7754 182.301V47.1436C6.99818 66.8001 -0.0130338 91.3605 0.826146 118.238Z" fill="#FF614C" fill-opacity="0.1" style="mix-blend-mode:darken"/>
<path d="M34.664 28.9372V205.602C40.9692 214.239 47.7472 222.519 54.9668 230.406V13.5615C47.5697 17.796 40.7463 22.9635 34.664 28.9372Z" fill="#FF614C" fill-opacity="0.1" style="mix-blend-mode:darken"/>
<path d="M351.387 14.3467V228.916C358.626 220.909 365.405 212.496 371.689 203.718V30.3185C365.638 24.1408 358.814 18.7723 351.387 14.3467Z" fill="#FF614C" fill-opacity="0.1" style="mix-blend-mode:darken"/>
<path d="M316.195 1.68066V263.244C323.125 257.229 329.933 250.97 336.498 244.481V7.11295C329.942 4.58642 323.136 2.7654 316.195 1.68066Z" fill="#FF614C" fill-opacity="0.1" style="mix-blend-mode:darken"/>
<path d="M386.578 49.2705V179.781C397 160.165 403.511 139.533 404.174 118.238C404.986 92.3225 398.489 68.5613 386.578 49.2705Z" fill="#FF614C" fill-opacity="0.1" style="mix-blend-mode:darken"/>
<path d="M255.165 9.22661C251.946 10.4785 248.821 11.9589 245.812 13.6564V315.4C252.363 311.186 259.172 306.675 266.115 301.853V5.52832C262.506 6.55788 258.856 7.79064 255.165 9.22661Z" fill="#FF614C" fill-opacity="0.1" style="mix-blend-mode:darken"/>
<path d="M281.004 2.01961V291.272C287.771 286.314 294.539 281.112 301.307 275.68V0.434625C294.505 0.335192 287.708 0.865778 281.004 2.01961Z" fill="#FF614C" fill-opacity="0.1" style="mix-blend-mode:darken"/>
<path d="M210.621 45.7753V336.654C215.656 333.795 221.138 330.598 226.958 327.103L230.924 324.705V23.9648C223.341 30.4301 216.529 37.7486 210.621 45.7753Z" fill="#FF614C" fill-opacity="0.1" style="mix-blend-mode:darken"/>
<path d="M112.509 68.6051C126.866 71.4254 128.696 81.8671 127.816 86.7355L56.5597 184.942L46.0033 193C46.0033 191.388 42.4844 186.285 40.725 183.935C39.036 184.741 38.6137 186.621 38.6137 187.46C36.934 186.659 34.9201 177.569 34.4329 175.155C34.5925 177.056 32.3974 178.762 31.2242 179.402C31.2242 174.567 25.946 170.337 23.3069 168.826C18.662 164.797 17.1489 149.688 16.973 142.638C16.973 145.458 10.991 147.842 8 148.681C11.3781 146.667 11.1669 139.448 10.6391 136.091C10.2169 129.644 18.9083 112.924 23.3069 105.37C16.973 108.19 10.4632 106.545 8 105.37C15.6007 104.161 42.4844 82.3708 54.9763 71.6268C58.3191 69.4444 66.9051 64.7775 74.5057 63.5688C82.1064 62.3601 91.7479 66.4227 95.6186 68.6051C94.7741 67.3964 91.0442 58.3647 89.2848 54C91.0442 57.6932 98.1522 65.7848 112.509 68.6051Z" fill="#FF614C" style="mix-blend-mode:darken"/>
<path d="M145.584 106.775C150.406 115.952 160.298 137.28 161.293 149.171C161.266 151.528 161.479 156.486 162.542 157.459C159.449 156.034 153.128 151.984 151.086 146.635C153.578 154.71 156.683 170.469 151.429 176.991C151.481 174.47 150.674 168.78 147.027 166.192C144.161 169.46 138.564 177.735 139.107 184.7C138.931 183.661 137.726 180.54 134.323 176.372C135.183 179.54 136.277 187.298 133.78 192.984C133.654 191.615 133.068 188.421 131.731 186.596C129.779 188.318 125.888 192.978 125.945 197.844C124.945 196.678 122.063 193.5 118.538 190.122C115.012 186.744 112.654 158.351 111.916 144.577L145.584 106.775Z" fill="#FF614C" style="mix-blend-mode:darken"/>
<ellipse cx="86.3914" cy="134.718" rx="64.2668" ry="62.0956" fill="#FF614C" style="mix-blend-mode:darken"/>
<g clip-path="url(#clip0)">
<path d="M74.242 246.883H104.487C104.487 246.883 114.5 232.933 114.5 214.648C114.5 191.122 143.473 182.413 143.473 149.559C143.514 115.466 117.003 90.2063 87.5382 90.165H87.4972H87.4562C57.9911 90.2063 31.4808 115.466 31.4808 149.559C31.4808 182.413 60.4534 191.122 60.4534 214.648C60.4534 232.933 74.242 246.883 74.242 246.883Z" fill="#484848" style="mix-blend-mode:darken"/>
<path d="M33.7788 234.212C31.9731 221.83 55.3235 213.617 58.1962 210.438C62.0127 206.27 68.4556 206.022 72.5593 209.819C76.7042 213.658 78.2225 218.817 74.4471 222.945C73.0928 224.513 35.6255 246.595 33.7788 234.212Z" fill="#484848" style="mix-blend-mode:darken"/>
<path d="M99.9729 222.903C96.7719 218.239 99.1521 212.956 103.748 209.737C108.386 206.517 114.705 207.673 117.906 212.337C121.189 217.083 140.395 227.402 138.836 239.289C137.399 249.938 101.122 224.637 99.9729 222.903Z" fill="#484848" style="mix-blend-mode:darken"/>
<path d="M76.5402 278.623C65.6242 278.623 61.8077 227.443 61.8077 227.443C61.1921 221.83 65.2138 216.753 70.7949 216.134C76.376 215.515 81.4237 219.56 82.0392 225.173C82.0392 225.173 87.4562 278.623 76.5402 278.623Z" fill="#484848" style="mix-blend-mode:darken"/>
<path d="M97.7154 278.169C84.9938 278.169 92.9551 223.935 92.9551 223.935C93.5296 218.321 98.5362 214.194 104.117 214.772C109.698 215.35 113.802 220.385 113.228 225.998C113.187 226.04 109.411 278.169 97.7154 278.169Z" fill="#484848" style="mix-blend-mode:darken"/>
<path d="M53.2853 148.532C53.4466 147.481 53.9942 146.56 54.6712 145.805C55.3848 145.031 56.2643 144.405 57.2734 144.037C59.3099 143.245 61.7921 143.708 63.2128 145.258C62.1656 145.275 61.2469 145.275 60.4205 145.366C59.5573 145.476 58.7864 145.679 57.9973 145.936C56.4377 146.488 54.9898 147.446 53.2853 148.532Z" fill="#F2F2F2"/>
<path d="M122.984 149.208C122.822 148.157 122.275 147.236 121.598 146.48C120.884 145.707 120.005 145.08 118.995 144.712C116.959 143.921 114.477 144.384 113.056 145.934C114.103 145.951 115.022 145.951 115.848 146.042C116.711 146.152 117.482 146.354 118.271 146.612C119.831 147.164 121.279 148.121 122.984 149.208Z" fill="#F2F2F2"/>
<path d="M103.366 167.583C103.366 171.055 99.4558 174.96 95.1109 177.13L89.4626 174.96C97.7178 174.526 101.339 170.331 103.366 167.583Z" fill="#F2F2F2"/>
<path fill-rule="evenodd" clip-rule="evenodd" d="M114.056 150.715C110.349 150.462 106.198 150.18 102.072 153.36C101.656 153.68 102.006 154.31 102.519 154.199C105.48 153.556 109.394 153.322 110.599 155.463C110.993 157.166 112.513 158.435 114.328 158.435C116.442 158.435 118.156 156.713 118.156 154.589C118.156 152.52 116.53 150.833 114.491 150.747C114.492 150.746 114.493 150.745 114.493 150.744C114.348 150.734 114.203 150.725 114.056 150.715Z" fill="#F2F2F2"/>
<path fill-rule="evenodd" clip-rule="evenodd" d="M64.4353 150.715C60.7279 150.462 56.5771 150.18 52.4512 153.36C52.0353 153.68 52.385 154.31 52.8981 154.199C55.8592 153.556 59.7728 153.322 60.9783 155.463C61.3722 157.166 62.8921 158.435 64.7071 158.435C66.8213 158.435 68.5351 156.713 68.5351 154.589C68.5351 152.52 66.9087 150.833 64.8702 150.747C64.871 150.746 64.8718 150.745 64.8726 150.744C64.7275 150.734 64.5817 150.725 64.4353 150.715Z" fill="#F2F2F2"/>
<path d="M75.5591 174.96C78.885 177.146 82.8269 179.827 87.0562 179.827C91.2855 179.827 95.2685 177.146 98.5534 174.96H75.5591Z" fill="#F2F2F2"/>
</g>
<path fill-rule="evenodd" clip-rule="evenodd" d="M94.6797 70.4481C94.9285 74.7827 97.9658 78.4621 102.438 80.5874C104.277 83.9207 107.463 86.5171 111.333 87.8494C114.945 91.5582 119.26 95.2793 121.634 95.143C120.78 94.2256 119.055 92.1019 118.989 90.946C118.961 90.4559 120.122 91.3989 121.984 92.9119C125.612 95.8586 131.901 100.967 137.249 101.857C136.282 101.309 134.332 99.9229 134.266 98.767C134.24 98.3155 135.092 98.8398 136.63 99.7868C140.016 101.871 146.728 106.002 154.736 106.29C150.513 102.546 146.189 95.3785 143.713 88.8022C141.076 81.7982 137.22 75.0919 133.883 70.166C132.698 65.628 129.225 61.9478 124.656 60.0767C121.311 57.5432 116.541 56.0973 111.335 56.396C101.723 56.9476 94.266 63.2389 94.6797 70.4481Z" fill="#FF614C" style="mix-blend-mode:darken"/>
<path fill-rule="evenodd" clip-rule="evenodd" d="M119.74 92.372C119.32 99.6989 114.186 105.919 106.627 109.511C103.517 115.147 98.1316 119.537 91.5884 121.789C85.4829 128.058 78.1894 134.348 74.1756 134.118C75.6196 132.567 78.5354 128.977 78.6476 127.023C78.6951 126.194 76.7324 127.789 73.5838 130.346C67.4511 135.327 56.8197 143.963 47.7806 145.468C49.4146 144.541 52.7105 142.198 52.8226 140.244C52.8664 139.481 51.4267 140.367 48.8257 141.968C43.1021 145.49 31.7554 152.474 18.2196 152.961C25.3575 146.631 32.6676 134.516 36.8526 123.399C41.3098 111.559 47.8289 100.222 53.4705 91.8954C55.4725 84.2256 61.3426 78.0054 69.0638 74.8421C74.7191 70.5579 82.7841 68.1126 91.5853 68.6177C107.834 69.5501 120.44 80.1853 119.74 92.372Z" fill="#FF614C" style="mix-blend-mode:darken"/>
<path d="M254.726 176.833C259.207 173.898 259.308 156.742 258.799 148.531L261.345 137H330.082L325.5 225.576C319.899 222.78 307.577 217.609 303.097 219.286C298.616 220.963 294.101 224.178 292.404 225.576C294.441 222.431 287.822 211.424 283.748 211.424C280.49 211.424 280.014 220.858 280.184 225.576C273.667 225.156 270.68 215.967 270.001 211.424C267.492 217.019 255.027 218.727 251.776 219.159C251.575 219.242 251.371 219.286 251.162 219.286C250.797 219.286 251.068 219.253 251.776 219.159C253.539 218.43 255.144 214.716 258.799 211.424C262.873 207.756 258.799 199.894 254.726 199.37C250.653 198.846 249.125 180.502 254.726 176.833Z" fill="#FF614C" style="mix-blend-mode:darken"/>
<path d="M396.274 176.833C391.793 173.898 391.692 156.742 392.201 148.531L389.655 137H320.918L325.5 225.576C331.101 222.78 343.423 217.609 347.903 219.286C352.384 220.963 356.899 224.178 358.596 225.576C356.559 222.431 363.178 211.424 367.252 211.424C370.51 211.424 370.986 220.858 370.816 225.576C377.333 225.156 380.32 215.967 380.999 211.424C383.508 217.019 395.973 218.727 399.224 219.159C399.425 219.242 399.629 219.286 399.838 219.286C400.203 219.286 399.932 219.253 399.224 219.159C397.461 218.43 395.856 214.716 392.201 211.424C388.127 207.756 392.201 199.894 396.274 199.37C400.347 198.846 401.875 180.502 396.274 176.833Z" fill="#FF614C" style="mix-blend-mode:darken"/>
<g clip-path="url(#clip1)">
<path d="M310.32 252.357H343.397C343.397 252.357 354.348 237.131 354.348 217.174C354.348 191.496 386.034 181.991 386.034 146.132C386.079 108.922 357.086 81.3517 324.862 81.3066H324.817H324.772C292.547 81.3517 263.554 108.922 263.554 146.132C263.554 181.991 295.24 191.496 295.24 217.174C295.24 237.131 310.32 252.357 310.32 252.357Z" fill="#484848" style="mix-blend-mode:darken"/>
<path d="M266.068 238.527C264.093 225.012 289.63 216.047 292.772 212.579C296.946 208.029 303.992 207.758 308.48 211.903C313.013 216.092 314.674 221.724 310.545 226.228C309.064 227.94 268.087 252.041 266.068 238.527Z" fill="#484848" style="mix-blend-mode:darken"/>
<path d="M338.461 226.184C334.96 221.093 337.563 215.327 342.59 211.813C347.661 208.3 354.573 209.561 358.074 214.651C361.664 219.832 382.668 231.094 380.963 244.068C379.392 255.691 339.717 228.076 338.461 226.184Z" fill="#484848" style="mix-blend-mode:darken"/>
<path d="M312.833 287C300.895 287 296.721 231.139 296.721 231.139C296.048 225.013 300.446 219.472 306.55 218.796C312.654 218.12 318.174 222.535 318.848 228.662C318.848 228.662 324.772 287 312.833 287Z" fill="#484848" style="mix-blend-mode:darken"/>
<path d="M335.992 286.504C322.079 286.504 330.786 227.31 330.786 227.31C331.414 221.183 336.89 216.678 342.993 217.309C349.097 217.94 353.585 223.436 352.957 229.562C352.912 229.607 348.783 286.504 335.992 286.504Z" fill="#484848" style="mix-blend-mode:darken"/>
<path d="M356.035 148.046C355.874 146.996 355.326 146.075 354.649 145.32C353.935 144.547 353.055 143.921 352.046 143.554C350.008 142.763 347.524 143.227 346.102 144.776C347.15 144.794 348.069 144.793 348.896 144.884C349.76 144.994 350.531 145.195 351.321 145.453C352.881 146.004 354.33 146.961 356.035 148.046Z" fill="#F2F2F2"/>
<path d="M286.298 148.722C286.459 147.672 287.007 146.751 287.684 145.996C288.398 145.223 289.278 144.597 290.287 144.229C292.325 143.439 294.809 143.902 296.231 145.452C295.183 145.469 294.263 145.468 293.437 145.56C292.573 145.669 291.802 145.871 291.012 146.128C289.452 146.68 288.003 147.637 286.298 148.722Z" fill="#F2F2F2"/>
<path d="M305.789 167.663C305.789 171.135 309.7 175.04 314.044 177.21L319.693 175.04C311.438 174.606 307.817 170.411 305.789 167.663Z" fill="#F2F2F2"/>
<path d="M333.596 175.04C330.27 177.226 326.328 179.907 322.099 179.907C317.87 179.907 313.887 177.226 310.602 175.04H333.596Z" fill="#F2F2F2"/>
<path d="M356.035 148.046C355.874 146.996 355.326 146.075 354.649 145.32C353.935 144.547 353.055 143.921 352.046 143.554C350.008 142.763 347.524 143.227 346.102 144.776C347.15 144.794 348.069 144.793 348.896 144.884C349.76 144.994 350.531 145.195 351.321 145.453C352.881 146.004 354.33 146.961 356.035 148.046Z" fill="#F2F2F2"/>
<path d="M286.298 148.722C286.459 147.672 287.007 146.751 287.684 145.996C288.398 145.223 289.278 144.597 290.287 144.229C292.325 143.439 294.809 143.902 296.231 145.452C295.183 145.469 294.263 145.468 293.437 145.56C292.573 145.669 291.802 145.871 291.012 146.128C289.452 146.68 288.003 147.637 286.298 148.722Z" fill="#F2F2F2"/>
<path d="M305.789 167.663C305.789 171.135 309.7 175.04 314.044 177.21L319.693 175.04C311.438 174.606 307.817 170.411 305.789 167.663Z" fill="#F2F2F2"/>
<path d="M333.596 175.04C330.27 177.226 326.328 179.907 322.099 179.907C317.87 179.907 313.887 177.226 310.602 175.04H333.596Z" fill="#F2F2F2"/>
<g style="mix-blend-mode:multiply">
<path d="M355.721 210C328.035 220.27 303.353 214.279 292 210C296.49 217.884 295 223.515 295 223.515C293.014 229.146 294.434 248.495 292.944 250.66C305.249 253.087 338.309 251.671 359 250.66C354.679 247.539 353.953 226.705 353.587 223.515C353.148 221.274 354.622 213.112 355.721 210Z" fill="#FF614C" style="mix-blend-mode:darken"/>
</g>
</g>
<path d="M276.777 128.315C275.468 129.625 267.505 148.512 263.687 157.792C250.162 94.9077 298.046 76.6397 323.679 75.3662C384.325 82.3533 392.579 125.222 389.124 145.783L385.307 157.792L380.678 121.785L357.493 134.32L371.998 113.109C369.271 115.11 338.145 120.483 335.677 134.32C335.601 134.749 333.283 116.748 329.465 113.109L316.445 119.182L313.841 105.3L294.311 123.403C291.039 120.855 278.085 127.005 276.777 128.315Z" fill="#FF614C" style="mix-blend-mode:darken"/>
<path fill-rule="evenodd" clip-rule="evenodd" d="M293.533 152.744C297.24 152.492 301.391 152.209 305.517 155.389C305.933 155.71 305.583 156.339 305.07 156.228C302.109 155.585 298.196 155.351 296.99 157.492C296.596 159.195 295.076 160.464 293.261 160.464C291.147 160.464 289.433 158.742 289.433 156.618C289.433 154.55 291.06 152.862 293.098 152.777C293.097 152.775 293.097 152.774 293.096 152.773C293.241 152.764 293.387 152.754 293.533 152.744Z" fill="#F2F2F2"/>
<path fill-rule="evenodd" clip-rule="evenodd" d="M343.154 152.744C346.861 152.492 351.012 152.209 355.138 155.389C355.554 155.71 355.204 156.339 354.691 156.228C351.73 155.585 347.816 155.351 346.611 157.492C346.217 159.195 344.697 160.464 342.882 160.464C340.768 160.464 339.054 158.742 339.054 156.618C339.054 154.55 340.681 152.862 342.719 152.777C342.718 152.775 342.717 152.774 342.717 152.773C342.862 152.764 343.007 152.754 343.154 152.744Z" fill="#F2F2F2"/>
<defs>
<clipPath id="clip0">
<rect width="112.033" height="188.458" fill="white" transform="translate(31.4808 90.165)"/>
</clipPath>
<clipPath id="clip1">
<rect width="122.525" height="205.693" fill="white" transform="translate(263.554 81.3066)"/>
</clipPath>
</defs>
</svg>
