<svg width="142" height="239" viewBox="0 0 142 239" fill="none" xmlns="http://www.w3.org/2000/svg">
<path d="M54.1993 198.748H92.5341C92.5341 198.748 105.226 181.056 105.226 157.868C105.226 128.032 141.948 116.988 141.948 75.3222C142 32.0865 108.399 0.0523434 71.052 0H71H70.948C33.6015 0.0523434 0 32.0865 0 75.3222C0 116.988 36.7223 128.032 36.7223 157.868C36.7223 181.056 54.1993 198.748 54.1993 198.748Z" fill="#484848" style="mix-blend-mode:darken"/>
<path d="M2.91263 182.679C0.623981 166.976 30.2203 156.56 33.8613 152.529C38.6987 147.242 46.865 146.928 52.0665 151.744C57.32 156.612 59.2445 163.155 54.4591 168.389C52.7427 170.378 5.25328 198.382 2.91263 182.679Z" fill="#484848" style="mix-blend-mode:darken"/>
<path d="M86.8127 168.337C82.7556 162.422 85.7724 155.722 91.5981 151.639C97.4757 147.557 105.486 149.022 109.543 154.937C113.704 160.956 138.047 174.042 136.071 189.117C134.25 202.622 88.2691 170.535 86.8127 168.337Z" fill="#484848" style="mix-blend-mode:darken"/>
<path d="M57.1122 239C43.2763 239 38.4389 174.094 38.4389 174.094C37.6587 166.976 42.7562 160.537 49.8302 159.752C56.9041 158.967 63.3019 164.097 64.0822 171.215C64.0822 171.215 70.9481 239 57.1122 239Z" fill="#484848" style="mix-blend-mode:darken"/>
<path d="M83.9515 238.424C67.8269 238.424 77.9178 169.645 77.9178 169.645C78.646 162.526 84.9918 157.292 92.0657 158.025C99.1397 158.757 104.341 165.143 103.613 172.262C103.561 172.314 98.7756 238.424 83.9515 238.424Z" fill="#484848" style="mix-blend-mode:darken"/>
<path d="M56.4358 106.729C60.649 109.503 65.6424 112.905 70.9999 112.905C76.3574 112.905 81.4029 109.503 85.564 106.729H56.4358Z" fill="#F2F2F2"/>
<path d="M104.914 91.6009C108.993 91.6009 112.3 88.2731 112.3 84.1681C112.3 80.0631 108.993 76.7354 104.914 76.7354C100.835 76.7354 97.5277 80.0631 97.5277 84.1681C97.5277 88.2731 100.835 91.6009 104.914 91.6009Z" fill="#F2F2F2"/>
<path d="M112.196 74.2228C109.647 73.9611 107.462 73.6994 105.382 73.9611C104.342 74.0658 103.353 74.3275 102.313 74.6939C101.273 75.0603 100.232 75.5838 99.0881 76.1595C99.8163 73.6471 102.365 71.658 105.122 71.3963C106.474 71.2393 107.879 71.4486 109.075 71.9197C110.271 72.4432 111.416 73.1236 112.196 74.2228Z" fill="#F2F2F2"/>
<path d="M37.0867 91.6009C41.1659 91.6009 44.4728 88.2731 44.4728 84.1681C44.4728 80.0631 41.1659 76.7354 37.0867 76.7354C33.0075 76.7354 29.7006 80.0631 29.7006 84.1681C29.7006 88.2731 33.0075 91.6009 37.0867 91.6009Z" fill="#F2F2F2"/>
<path d="M29.8044 74.2228C30.5846 73.1236 31.7289 72.3908 32.9253 71.9197C34.1736 71.4486 35.526 71.2393 36.8784 71.3963C39.6352 71.658 42.1839 73.5947 42.9121 76.1595C41.7158 75.5838 40.6755 75.0603 39.6872 74.6939C38.6469 74.3275 37.6586 74.1181 36.6183 73.9611C34.5377 73.6994 32.3531 73.9611 29.8044 74.2228Z" fill="#F2F2F2"/>
<g opacity="0.8">
<path fill-rule="evenodd" clip-rule="evenodd" d="M74.052 157.206L77.5387 152.133C78.4508 150.806 77.5007 149 75.8905 149H66.3567C64.7465 149 63.7964 150.806 64.7085 152.133L68.1581 157.152L64 174.131H64.4529C64.2714 174.686 64.3274 175.324 64.7085 175.878L69.4754 182.814C70.2701 183.97 71.9772 183.97 72.7718 182.814L77.5387 175.878C77.9199 175.324 77.9758 174.686 77.7943 174.131H77.8515L74.052 157.206Z" fill="#FF614C" style="mix-blend-mode:darken"/>
</g>
<path d="M57.9063 108C59.7938 108 61.511 107.321 62.6004 106.233C63.6907 107.321 65.4109 108 67.3004 108C69.1899 108 70.9091 107.321 71.9995 106.233C73.0889 107.321 74.807 108 76.6935 108C78.586 108 80.3083 107.321 81.3996 106.233C82.49 107.321 84.2102 108 86.0997 108C89.3537 108 92 106 92 103.541V99.9516C92 98.8306 91.7279 97.7401 91.1908 96.7106C89.4222 93.2952 84.9872 91 80.1531 91H63.8459C59.0128 91 54.5768 93.2944 52.8092 96.7091C52.2721 97.7394 52 98.8306 52 99.9516V103.541C52 106 54.6493 108 57.9063 108ZM54.0991 99.9516C54.0991 99.0301 54.3228 98.1346 54.7632 97.2878C56.2194 94.4755 59.8694 92.5862 63.8459 92.5862H80.1541C84.1306 92.5862 87.7806 94.4755 89.2368 97.2878L89.2378 97.2893C89.6782 98.1346 89.9019 99.0301 89.9019 99.9516V103.541C89.9019 105.125 88.1968 106.414 86.1007 106.414C84.3634 106.414 82.8498 105.521 82.4175 104.243L81.4006 101.232L80.3828 104.243C79.9505 105.521 78.4339 106.413 76.6935 106.413C74.9602 106.413 73.4486 105.521 73.0163 104.243L72.0005 101.232L70.9837 104.244C70.5524 105.522 69.0378 106.415 67.3004 106.415C65.5631 106.415 64.0495 105.522 63.6172 104.244L62.5994 101.234L61.5825 104.245C61.1512 105.523 59.6386 106.415 57.9053 106.415C55.8062 106.415 54.0981 105.127 54.0981 103.543V99.9516H54.0991Z" fill="#FF614C" style="mix-blend-mode:darken"/>
</svg>
