<svg width="37" height="62" viewBox="0 0 37 62" fill="none" xmlns="http://www.w3.org/2000/svg">
<g clip-path="url(#clip0)">
<path d="M13.7473 51.4393H23.4659C23.4659 51.4393 26.6835 46.9238 26.6835 41.0055C26.6835 33.3905 35.9934 30.5716 35.9934 19.9374C36.0066 8.90233 27.4879 0.72625 18.0198 0.712891H18.0066H17.9934C8.52527 0.72625 0.0065918 8.90233 0.0065918 19.9374C0.0065918 30.5716 9.31648 33.3905 9.31648 41.0055C9.31648 46.9238 13.7473 51.4393 13.7473 51.4393Z" fill="#484848" style="mix-blend-mode:darken"/>
<path d="M0.745114 47.3383C0.164894 43.3305 7.66819 40.6719 8.59127 39.6432C9.81764 38.2939 11.888 38.2137 13.2067 39.4428C14.5385 40.6853 15.0264 42.3552 13.8132 43.6912C13.3781 44.1988 1.33852 51.3462 0.745114 47.3383Z" fill="#484848" style="mix-blend-mode:darken"/>
<path d="M22.0155 43.6778C20.987 42.1681 21.7518 40.4581 23.2287 39.4161C24.7188 38.374 26.7496 38.7481 27.7782 40.2577C28.8331 41.7941 35.0046 45.134 34.5035 48.9815C34.0419 52.4283 22.3848 44.2389 22.0155 43.6778Z" fill="#484848" style="mix-blend-mode:darken"/>
<path d="M14.4856 61.7125C10.9779 61.7125 9.7515 45.1466 9.7515 45.1466C9.5537 43.3297 10.846 41.6865 12.6394 41.4861C14.4328 41.2857 16.0548 42.5949 16.2526 44.4118C16.2526 44.4118 17.9933 61.7125 14.4856 61.7125Z" fill="#484848" style="mix-blend-mode:darken"/>
<path d="M21.2901 61.5662C17.2022 61.5662 19.7604 44.0116 19.7604 44.0116C19.945 42.1947 21.5538 40.8588 23.3472 41.0458C25.1406 41.2328 26.4593 42.8627 26.2747 44.6796C26.2615 44.693 25.0483 61.5662 21.2901 61.5662Z" fill="#484848" style="mix-blend-mode:darken"/>
<path d="M14.3143 27.9531C15.3824 28.6612 16.6484 29.5296 18.0066 29.5296C19.3648 29.5296 20.644 28.6612 21.6989 27.9531H14.3143Z" fill="#F2F2F2"/>
<path d="M26.6044 24.092C27.6386 24.092 28.4769 23.2426 28.4769 22.1949C28.4769 21.1472 27.6386 20.2979 26.6044 20.2979C25.5702 20.2979 24.7319 21.1472 24.7319 22.1949C24.7319 23.2426 25.5702 24.092 26.6044 24.092Z" fill="#F2F2F2"/>
<path d="M28.4505 19.6565C27.8044 19.5897 27.2505 19.5229 26.723 19.5897C26.4593 19.6164 26.2088 19.6832 25.945 19.7767C25.6813 19.8702 25.4176 20.0038 25.1274 20.1508C25.3121 19.5095 25.9582 19.0018 26.6571 18.935C27 18.895 27.356 18.9484 27.6593 19.0686C27.9626 19.2022 28.2527 19.3759 28.4505 19.6565Z" fill="#F2F2F2"/>
<path d="M9.40883 24.092C10.443 24.092 11.2814 23.2426 11.2814 22.1949C11.2814 21.1472 10.443 20.2979 9.40883 20.2979C8.37466 20.2979 7.5363 21.1472 7.5363 22.1949C7.5363 23.2426 8.37466 24.092 9.40883 24.092Z" fill="#F2F2F2"/>
<path d="M7.56267 19.6565C7.76047 19.3759 8.05058 19.1889 8.35388 19.0686C8.67036 18.9484 9.01322 18.895 9.35608 18.935C10.055 19.0018 10.7011 19.4961 10.8857 20.1508C10.5824 20.0038 10.3187 19.8702 10.0682 19.7767C9.80443 19.6832 9.55388 19.6297 9.29014 19.5897C8.76267 19.5229 8.20882 19.5897 7.56267 19.6565Z" fill="#F2F2F2"/>
</g>
<defs>
<clipPath id="clip0">
<rect width="36" height="61" fill="white" transform="translate(0.0065918 0.712891)"/>
</clipPath>
</defs>
</svg>
