<svg width="72" height="120" viewBox="0 0 72 120" fill="none" xmlns="http://www.w3.org/2000/svg">
<g clip-path="url(#clip0)">
<path d="M27.1156 99.7897H46.283C46.283 99.7897 52.6287 90.9067 52.6287 79.2641C52.6287 64.2838 70.9899 58.7385 70.9899 37.8187C71.0159 16.1104 54.2152 0.0262812 35.5419 0H35.5159H35.4899C16.8167 0.0262812 0.0159302 16.1104 0.0159302 37.8187C0.0159302 58.7385 18.3771 64.2838 18.3771 79.2641C18.3771 90.9067 27.1156 99.7897 27.1156 99.7897Z" fill="#333333"/>
<path d="M1.47234 91.7214C0.32802 83.8371 15.1262 78.6071 16.9467 76.5834C19.3654 73.929 23.4485 73.7714 26.0493 76.1892C28.676 78.6334 29.6383 81.9185 27.2456 84.5467C26.3874 85.5453 2.64267 99.6058 1.47234 91.7214Z" fill="#333333"/>
<path d="M43.4222 84.5204C41.3936 81.5506 42.902 78.1866 45.8148 76.1367C48.7537 74.0867 52.7588 74.8226 54.7874 77.7924C56.8679 80.8147 69.0394 87.385 68.0511 94.954C67.1408 101.735 44.1504 85.6242 43.4222 84.5204Z" fill="#333333"/>
<path d="M28.572 120C21.654 120 19.2354 87.4113 19.2354 87.4113C18.8452 83.8371 21.394 80.6045 24.931 80.2103C28.468 79.816 31.6669 82.3916 32.057 85.9658C32.057 85.9658 35.4899 120 28.572 120Z" fill="#333333"/>
<path d="M41.9918 119.711C33.9295 119.711 38.9749 85.1774 38.9749 85.1774C39.339 81.6032 42.5119 78.975 46.0489 79.343C49.5859 79.7109 52.1866 82.9172 51.8225 86.4915C51.7965 86.5177 49.4038 119.711 41.9918 119.711Z" fill="#333333"/>
<path d="M28.2339 53.5874C30.3405 54.9803 32.8372 56.6886 35.5159 56.6886C38.1947 56.6886 40.7174 54.9803 42.798 53.5874H28.2339Z" fill="#F2F2F2"/>
<path d="M52.4727 45.9921C54.5123 45.9921 56.1657 44.3213 56.1657 42.2602C56.1657 40.1991 54.5123 38.5283 52.4727 38.5283C50.4331 38.5283 48.7797 40.1991 48.7797 42.2602C48.7797 44.3213 50.4331 45.9921 52.4727 45.9921Z" fill="#F2F2F2"/>
<path d="M56.1137 37.2668C54.8394 37.1354 53.7471 37.0039 52.7068 37.1354C52.1866 37.1879 51.6925 37.3193 51.1723 37.5033C50.6522 37.6873 50.1321 37.9501 49.5599 38.2392C49.924 36.9777 51.1984 35.979 52.5767 35.8476C53.2529 35.7687 53.9551 35.8739 54.5533 36.1104C55.1515 36.3732 55.7236 36.7149 56.1137 37.2668Z" fill="#F2F2F2"/>
<path d="M18.5591 45.9921C20.5988 45.9921 22.2522 44.3213 22.2522 42.2602C22.2522 40.1991 20.5988 38.5283 18.5591 38.5283C16.5195 38.5283 14.8661 40.1991 14.8661 42.2602C14.8661 44.3213 16.5195 45.9921 18.5591 45.9921Z" fill="#F2F2F2"/>
<path d="M14.9181 37.2668C15.3082 36.7149 15.8804 36.3469 16.4786 36.1104C17.1027 35.8739 17.7789 35.7687 18.4551 35.8476C19.8335 35.979 21.1079 36.9514 21.472 38.2392C20.8738 37.9501 20.3537 37.6873 19.8595 37.5033C19.3394 37.3193 18.8452 37.2142 18.3251 37.1354C17.2848 37.0039 16.1925 37.1354 14.9181 37.2668Z" fill="#F2F2F2"/>
</g>
<defs>
<clipPath id="clip0">
<rect width="71" height="120" fill="white" transform="translate(0.0159302)"/>
</clipPath>
</defs>
</svg>
