<svg width="413" height="147" viewBox="0 0 413 147" fill="none" xmlns="http://www.w3.org/2000/svg">
<g clip-path="url(#clip0)">
<path d="M155.177 53.067L159.089 76.8845C159.089 76.8845 166.249 72.4553 186.479 71.7867C186.479 71.7867 193.888 71.6195 199.715 74.3774C201.38 75.1295 202.795 76.2995 203.794 77.7202C205.293 79.8094 205.293 80.9794 205.459 83.8208C205.459 83.8208 208.207 109.226 212.286 130.286C212.286 130.286 213.118 135.216 216.032 139.228C217.697 141.568 220.194 143.239 222.942 144.075C227.021 145.328 234.347 146.248 245.752 143.156V124.854C245.752 124.854 238.093 125.857 238.01 118.168C238.01 118.252 237.76 79.893 237.76 79.893C237.76 79.893 237.927 55.6576 212.452 48.8049C212.536 48.972 184.397 40.6986 155.177 53.067Z" fill="#484848" style="mix-blend-mode:darken"/>
<g style="mix-blend-mode:multiply">
<path d="M212.426 89.2531C210.261 86.9131 207.847 84.8239 204.933 83.5703C187.035 75.6312 169.219 83.4868 169.219 83.4868C148.24 92.1781 150.904 115.327 150.904 115.327C151.737 130.37 160.728 138.142 168.97 141.819C177.294 145.579 186.618 146.164 195.526 144.242C212.675 140.565 215.506 130.203 215.506 130.203C222.665 113.656 221 98.613 212.426 89.2531ZM207.764 111.232C204.018 120.091 192.113 119.673 192.113 119.673C183.122 119.589 183.288 112.235 183.205 112.235C182.289 107.054 185.869 104.296 185.869 104.296C194.444 98.5294 204.018 103.376 207.264 105.215C208.013 105.633 208.43 106.469 208.43 107.304C208.513 109.979 207.764 111.232 207.764 111.232Z" fill="#FFAB33"/>
</g>
<g clip-path="url(#clip1)">
<path d="M262.961 0.524902H295.373L294.623 146.475C294.623 146.475 277.22 145.039 262.961 139.678V0.524902Z" fill="#484848" style="mix-blend-mode:darken"/>
</g>
<g style="mix-blend-mode:multiply" opacity="0.9">
<path d="M347.856 63.0119C326.961 36.6873 295.825 50.1421 295.825 50.1421C267.521 60.5884 263.608 92.0108 262.942 102.791C262.775 104.797 262.775 106.719 262.859 108.725C263.608 124.018 271.267 133.378 278.926 138.977C286.335 144.326 295.326 146.916 304.483 147C353.6 147.418 357.43 112.987 357.513 112.653C364.007 79.3917 347.773 62.9284 347.856 63.0119ZM325.212 104.63C321.633 126.525 294.993 117.583 294.993 117.583V78.8067C307.231 73.6254 315.222 78.1382 316.221 78.7231C316.305 78.7231 316.305 78.8067 316.388 78.8067C329.042 86.7459 325.212 104.713 325.212 104.63Z" fill="#FF614C" style="mix-blend-mode:darken"/>
</g>
<path d="M100.898 92.2613C101.648 86.9128 102.647 76.0487 100.316 65.5189H135.78C135.78 65.5189 142.606 111.733 110.639 133.963C110.972 133.712 87.6617 152.599 48.368 141.986C47.9518 141.818 5.99414 132.876 0.249932 83.57C0.666179 83.2357 -5.41102 46.047 23.1435 20.6416C23.4765 20.3074 52.8635 -6.10083 95.2374 8.18968C95.2374 8.18968 125.873 17.9674 133.532 51.4791H98.6506C98.6506 51.4791 93.6557 37.4393 73.0099 36.3528C73.2596 36.3528 43.1233 33.01 37.0461 66.3546C37.0461 66.1038 29.3872 110.897 70.5956 112.318C70.5956 112.318 89.4932 113.739 97.9014 100.284C99.6496 97.9441 100.482 95.1027 100.898 92.2613Z" fill="#484848" style="mix-blend-mode:darken"/>
<g style="mix-blend-mode:multiply" opacity="0.9">
<path d="M71.1782 65.4355V95.688H134.364C134.364 95.688 137.694 85.4088 135.78 65.4355H71.1782Z" fill="#FF614C" style="mix-blend-mode:darken"/>
</g>
</g>
<g clip-path="url(#clip2)">
<g style="mix-blend-mode:multiply">
<path d="M377.023 49.9556H410.249V143.85H376.811L377.023 49.9556Z" fill="#FFAB33"/>
</g>
<path d="M395.901 4.24296C395.901 4.24296 407.668 4.83885 411.858 15.8627C412.874 18.5442 413.17 21.396 412.959 24.2477C412.535 29.7809 410.08 39.4853 397.34 41.8263C394.801 42.2945 392.219 42.3371 389.679 41.8689C384.812 40.9325 377.193 37.9105 374.95 28.1209C373.892 23.4816 374.145 18.5868 376.219 14.2879C378.547 9.39312 383.838 3.64708 395.901 4.24296Z" fill="#484848" style="mix-blend-mode:darken"/>
</g>
<defs>
<clipPath id="clip0">
<rect width="413" height="147" fill="white"/>
</clipPath>
<clipPath id="clip1">
<rect width="32.9355" height="145.95" fill="white" transform="translate(262.438 0.524902)"/>
</clipPath>
<clipPath id="clip2">
<rect width="38.6861" height="139.65" fill="white" transform="translate(374.314 4.2002)"/>
</clipPath>
</defs>
</svg>
