<svg width="155" height="225" viewBox="0 0 155 225" fill="none" xmlns="http://www.w3.org/2000/svg">
<g style="mix-blend-mode:multiply">
<path fill-rule="evenodd" clip-rule="evenodd" d="M116.543 136.726C106.526 142.009 95.1123 145 83 145C72.6027 145 62.7202 142.796 53.7941 138.83C31.4021 138.361 9.04033 136.843 11.1368 133.34C14.0401 128.487 12.679 98.4457 11.4258 80.8758C11.1444 78.2892 11 75.6615 11 73C11 33.2355 43.2355 1 83 1C122.765 1 155 33.2355 155 73C155 76.4724 154.754 79.8874 154.279 83.2285C153.134 101.01 152.188 126.869 154.863 131.34C156.824 134.617 137.388 136.156 116.543 136.726Z" fill="#FF614C" style="mix-blend-mode:darken"/>
</g>
<path d="M67.2374 188.453H102.063C102.063 188.453 113.592 172.39 113.592 151.336C113.592 124.247 146.953 114.219 146.953 76.3887C147 37.1329 116.475 8.04753 82.5473 8H82.5H82.4528C48.5253 8.04753 18 37.1329 18 76.3887C18 114.219 51.3604 124.247 51.3604 151.336C51.3604 172.39 67.2374 188.453 67.2374 188.453Z" fill="#484848" style="mix-blend-mode:darken"/>
<path d="M20.646 173.862C18.5669 159.605 45.4537 150.147 48.7614 146.488C53.1559 141.688 60.5746 141.403 65.2998 145.775C70.0724 150.195 71.8207 156.136 67.4735 160.888C65.9141 162.694 22.7724 188.12 20.646 173.862Z" fill="#484848" style="mix-blend-mode:darken"/>
<path d="M96.8651 160.841C93.1794 155.471 95.9201 149.387 101.212 145.68C106.552 141.974 113.829 143.304 117.515 148.675C121.295 154.14 143.409 166.021 141.613 179.709C139.96 191.97 98.1882 162.837 96.8651 160.841Z" fill="#484848" style="mix-blend-mode:darken"/>
<path d="M69.8836 225C57.3143 225 52.9198 166.069 52.9198 166.069C52.2111 159.605 56.8418 153.76 63.2682 153.047C69.6946 152.334 75.5066 156.991 76.2154 163.455C76.2154 163.455 82.4528 225 69.8836 225Z" fill="#484848" style="mix-blend-mode:darken"/>
<path d="M94.2658 224.477C79.6174 224.477 88.7844 162.029 88.7844 162.029C89.446 155.565 95.2108 150.813 101.637 151.478C108.064 152.144 112.789 157.942 112.127 164.405C112.08 164.453 107.733 224.477 94.2658 224.477Z" fill="#484848" style="mix-blend-mode:darken"/>
<path d="M69.2692 104.904C73.0967 107.423 77.6329 110.512 82.5 110.512C87.367 110.512 91.9505 107.423 95.7307 104.904H69.2692Z" fill="#F2F2F2"/>
<path d="M113.309 91.169C117.015 91.169 120.019 88.1476 120.019 84.4205C120.019 80.6933 117.015 77.6719 113.309 77.6719C109.603 77.6719 106.599 80.6933 106.599 84.4205C106.599 88.1476 109.603 91.169 113.309 91.169Z" fill="#F2F2F2"/>
<path d="M119.924 75.3905C117.609 75.1529 115.624 74.9153 113.734 75.1529C112.789 75.2479 111.891 75.4856 110.946 75.8182C110.001 76.1509 109.056 76.6262 108.017 77.149C108.678 74.8677 110.994 73.0618 113.498 72.8242C114.727 72.6816 116.002 72.8717 117.089 73.2994C118.176 73.7747 119.216 74.3925 119.924 75.3905Z" fill="#F2F2F2"/>
<path d="M51.6914 91.169C55.3971 91.169 58.4013 88.1476 58.4013 84.4205C58.4013 80.6933 55.3971 77.6719 51.6914 77.6719C47.9856 77.6719 44.9815 80.6933 44.9815 84.4205C44.9815 88.1476 47.9856 91.169 51.6914 91.169Z" fill="#F2F2F2"/>
<path d="M45.0758 75.3905C45.7846 74.3925 46.8242 73.7271 47.911 73.2994C49.045 72.8717 50.2736 72.6816 51.5022 72.8242C54.0066 73.0618 56.322 74.8202 56.9835 77.149C55.8967 76.6262 54.9516 76.1509 54.0538 75.8182C53.1088 75.4856 52.211 75.2955 51.2659 75.1529C49.3758 74.9153 47.3912 75.1529 45.0758 75.3905Z" fill="#F2F2F2"/>
<g style="mix-blend-mode:multiply">
<path d="M114.149 145C86.2681 170.024 61.4113 155.426 49.9787 145C54.8468 161.379 51.2695 169.265 49.9787 171.161C51.7489 192.09 47.3972 199.597 45 200.734C57.3915 206.649 102.163 203.199 123 200.734C116.804 198.459 114.518 182.346 114.149 174.573C113.706 169.114 113.043 152.583 114.149 145Z" fill="#FF614C" style="mix-blend-mode:darken"/>
</g>
<path fill-rule="evenodd" clip-rule="evenodd" d="M24.5 30.4995C30 22.5089 53 2.49952 82 0.999697C95.5 -0.350188 117.8 9.29952 121 12.4995C121.721 13.2203 121.24 15.2239 119.891 18.0391C123.775 18.5625 128.209 19.6316 131.015 21.42C142.849 28.2044 148.314 41.304 148.953 45.7514C150.317 55.2408 148.775 60.7878 147.537 65.2396C146.539 68.8298 145.739 71.7077 146.821 75.3668C142.799 72.9113 135.904 57.2674 134.427 51.5299C133.676 52.5932 135.523 58.8801 136.541 61.8907C132.603 59.2712 124.405 44.462 120.799 37.3849C119.965 39.0254 119.559 44.6665 119.46 47.2819C116.783 45.2213 114.155 36.9349 112.716 29.6731C102.869 43.5721 87.0755 60.9467 78.9999 62.4997C81.3332 57.333 85.9999 45.9997 85.9999 41.9997C72.3332 52.1664 42.4999 72.7997 32.4999 73.9997C37.3332 69.1664 46.8999 58.7997 46.4999 55.9997C38.1665 65.6664 10 89.1995 0 89.9995C5.58043 83.9726 6.83597 77.607 8.40226 69.6657C10.3444 59.8188 12.7644 47.5493 24.5 30.4995Z" fill="#FF614C" style="mix-blend-mode:darken"/>
</svg>
